<?xml version="1.0"?>
<svg width="1024" height="1024" xmlns="http://www.w3.org/2000/svg" xmlns:svg="http://www.w3.org/2000/svg" class="icon" version="1.1">
 <g class="layer">
  <title>Layer 1</title>
  <path d="m489.48,814.05l-1.11,0a16.09,13.47 0 0 1 -15,-14.36c14.21,-174.64 37.28,-643.38 -25.82,-714.15a16.1,13.48 0 0 1 25.81,-16.11c81.69,91.63 37.45,666.82 32.13,732.1a16.1,13.48 0 0 1 -16.01,12.52z" fill="#aaffaa" id="svg_1"/>
  <path d="m506.64,480.34l-0.08,0a12.88,12.88 0 0 1 -11.62,-7.49c-1,-2.17 -101.43,-209.65 -174,-280.12c-5.1,-5 -4.54,-21 0.42,-26.15a12.87,12.87 0 0 1 18.21,-0.26c61.73,60 138.4,211.8 167.21,271.45c12.32,-24.81 33.14,-65.69 57,-108.09c52.06,-92.47 93.47,-148.07 123.08,-165.26a12.87,12.87 0 0 1 17.6,4.67c3.57,6.15 1,21.59 -4.7,25.78c-45.56,33.28 -148.53,208.68 -181.49,278.13a12.87,12.87 0 0 1 -11.63,7.34z" fill="#aaffd4" id="svg_2" transform="matrix(1 0 0 1 0 0)"/>
  <path d="m504.49,557.61l-0.15,0a12.87,12.87 0 0 1 -10.49,-5.61c-1.52,-2.22 -156.56,-209 -219,-267.51c-8.59,-8 -5.9,-21.39 -1.41,-26.9a12.87,12.87 0 0 1 18.11,-1.87c59.63,48.44 177.39,215.11 213.21,266.71c17.75,-24.43 55.24,-75.49 94.46,-125.92c113.11,-145.43 130,-144.39 140.07,-143.65a12.87,12.87 0 0 1 12,13.7c-0.44,6.67 -6.41,17.93 -13.92,20.07c-23.16,8.24 -130.18,137.06 -222.37,265.61a12.89,12.89 0 0 1 -10.51,5.37zm233.1,-279.06zm1.7,-0.11z" fill="#aaffd4" id="svg_3"/>
  <path d="m502.34,619.85l-0.34,0a12.86,12.86 0 0 1 -9.28,-4.33c-1.8,-2 -177.27,-184.07 -260.26,-217.27c-13.46,-5.37 -15.1,-27.25 -12.65,-33.95a12.87,12.87 0 0 1 16.52,-7.67c79.56,29.11 227.91,189 266.52,231.62c19.9,-19.76 67.79,-66.84 118,-112.36c137.85,-125 158.4,-117 169.46,-112.73c6.63,2.58 7.72,12.14 7.54,19.25c-0.2,7.81 -10.2,21.6 -17.44,24c-11.1,3.72 -143.27,82.88 -268.92,209.59a12.89,12.89 0 0 1 -9.15,3.85z" fill="#aaffd4" id="svg_4"/>
  <path d="m502.34,531.8a12.88,12.88 0 0 1 -8.38,-3.09c-94.65,-81 -250.8,-183.64 -287.28,-196.51c-6.7,-2.37 -12.2,-20.69 -11.12,-27.72a12.87,12.87 0 0 1 14.69,-10.77c9.44,1.45 38.2,5.88 173.92,112c51.93,40.62 100.11,81 118.59,96.63c59.48,-45.34 265.94,-200.2 314.71,-200.2l1,0a12.88,12.88 0 0 1 12.28,13.45c-0.32,7.11 -7.66,18.85 -15.28,20c-27.58,4.06 -176,94.26 -305.26,193.56a12.85,12.85 0 0 1 -7.87,2.65z" fill="#aaffaa" id="svg_5"/>
  <path d="m500.2,576.88a12.88,12.88 0 0 1 -7.63,-2.5c-2.24,-1.65 -218.81,-150.42 -317,-154.72c-12.87,-0.56 -19.07,-20.79 -18.77,-27.9a12.8,12.8 0 0 1 13.4,-12.33c96.36,4 289.68,139.62 330.33,168.89c48.85,-32.32 263.62,-170.74 340.17,-162.39a12.88,12.88 0 0 1 11.42,14.19c-0.77,7.07 -10.34,18.11 -17.36,18.07c-60.77,-0.4 -256.24,108.89 -327.4,156.52a12.85,12.85 0 0 1 -7.16,2.17z" fill="#aaffaa" id="svg_6"/>
  <path d="m500.2,611.22c-3.28,0 -4.5,-0.31 -45.66,-13.34c-78.32,-24.78 -232.81,-58.61 -296.68,-63.4c-7.1,-0.48 -20.86,-24.48 -20.36,-31.54a12.78,12.78 0 0 1 13.8,-11.88c66.86,5 231.76,57.19 311,82.27c16.86,5.34 31.77,10.05 37.65,11.73c4.35,-1.43 13.71,-4.79 23.51,-8.29c71.2,-25.5 260.34,-93.21 346.7,-87.86a12.88,12.88 0 0 1 12,13.66c-0.44,7.09 -12.86,25.64 -20.1,25.08c-81.06,-5.1 -260.06,48.35 -329.9,73.35c-27.45,9.84 -28.65,10.22 -31.96,10.22z" fill="#aaffaa" id="svg_7"/>
  <path d="m498,645.56a12.9,12.9 0 0 1 -2.85,-0.32c-44.55,-10.12 -302.92,-25.39 -341.1,-12c-6.72,2.35 -22.15,-11 -24.5,-17.74a12.88,12.88 0 0 1 7.9,-16.41c47.57,-16.66 314.16,11.43 360.46,20.44c40.88,-8.67 339.47,-59.38 392.67,-13.78a12.88,12.88 0 0 1 1.4,18.16c-4.63,5.4 -24.67,9.6 -36.34,1.95c-40.08,-26.26 -282.14,2 -354.63,19.36a12.8,12.8 0 0 1 -3.01,0.34z" fill="#aaffaa" id="svg_8"/>
  <path d="m208.3,712.1a12.88,12.88 0 0 1 -8.72,-22.36c80.71,-74.16 282.51,-52.8 301.09,-50.65c50.2,-2.27 287.54,-9.76 325.83,48.8a12.88,12.88 0 0 1 -3.73,17.83c-6,3.89 -22.21,1 -27.84,-4.61c-16.22,-16.22 -96.2,-45.36 -294.13,-36.23a14.43,14.43 0 0 1 -2.14,-0.08c-2.07,-0.25 -204.45,-21.32 -278.55,46.78c-2.49,2.25 -8.7,0.52 -11.81,0.52z" fill="#aaffaa" id="svg_9"/>
  <text fill="#ff7f00" font-family="Helvetica" font-size="121" font-weight="bold" id="svg_10" stroke="null" stroke-dasharray="null" stroke-linecap="null" stroke-linejoin="null" stroke-opacity="null" stroke-width="0" text-anchor="middle" x="504" xml:space="preserve" y="557.61">LinkShrub</text>
 </g>
</svg>